<svg width="100" height="100" viewBox="0 0 100 100" fill="none" xmlns="http://www.w3.org/2000/svg">
<path d="M62.5 77.3439H37.5C35.3438 77.3439 33.5938 79.0939 33.5938 81.2502V87.5002C33.5938 88.5783 34.0312 89.5564 34.7375 90.2658L40.9875 96.5158C41.6938 97.2221 42.6687 97.6564 43.7469 97.6564H43.75H56.25C56.25 97.6564 56.2531 97.6564 56.2563 97.6564C57.3344 97.6564 58.3094 97.2189 59.0156 96.5158L65.2656 90.2658C65.9719 89.5596 66.4062 88.5846 66.4062 87.5064C66.4062 87.5033 66.4062 87.5033 66.4062 87.5002V81.2502C66.4031 79.0939 64.6562 77.3471 62.5 77.3439ZM58.5938 85.8814L54.6313 89.8439H45.3656L41.4031 85.8814V85.1564H58.5906L58.5938 85.8814ZM84.7656 39.2439C84.775 38.9377 84.7812 38.5752 84.7812 38.2158C84.7812 31.3908 82.7375 25.0408 79.225 19.7471L79.3031 19.8721C73.3063 9.70957 62.6531 2.8502 50.3563 2.23457L50.2719 2.23145H50.05C37.7563 2.74707 27.1187 9.39395 21.0688 19.1783L20.9813 19.3314C17.325 24.6033 15.1406 31.1346 15.1406 38.1783C15.1406 38.2158 15.1406 38.2564 15.1406 38.2939V38.2877C15.7156 45.4564 18.025 51.9846 21.6438 57.5877L21.5438 57.4252C22.55 59.1596 23.6187 60.8689 24.6875 62.5689C26.7844 65.6658 28.7938 69.2252 30.5063 72.9502L30.7 73.4221C31.3063 74.8439 32.6906 75.8221 34.3031 75.8221C34.8438 75.8221 35.3625 75.7127 35.8344 75.5127L35.8094 75.5221C37.2313 74.9158 38.2094 73.5283 38.2094 71.9127C38.2094 71.3689 38.0969 70.8502 37.8969 70.3814L37.9062 70.4064C35.8156 65.7783 33.6125 61.8471 31.1156 58.1283L31.3031 58.4252C30.2812 56.7908 29.2594 55.1627 28.2969 53.5033C25.3625 49.1377 23.4312 43.8689 22.9531 38.1877L22.9438 38.0689C23.0031 32.6471 24.7094 27.6377 27.5844 23.5002L27.5281 23.5846C32.2531 15.8002 40.4875 10.5533 49.9813 10.0471L50.05 10.0439H50.2125C59.8094 10.7064 68.0156 16.0877 72.5938 23.8658L72.6656 23.9971C75.3656 28.0377 76.9719 33.0064 76.9719 38.3502C76.9719 38.5158 76.9719 38.6846 76.9656 38.8502V38.8252C76.2781 44.5721 74.2969 49.7502 71.3187 54.2064L71.4 54.0783C70.5031 55.6002 69.5625 57.1033 68.6219 58.5971C66.3844 61.9283 64.2031 65.7783 62.3094 69.7877L62.0781 70.3346C61.8687 70.7971 61.7469 71.3377 61.7469 71.9064C61.7469 74.0627 63.4969 75.8127 65.6531 75.8127C67.2531 75.8127 68.6281 74.8502 69.2344 73.4721L69.2438 73.4471C71.1969 69.2908 73.1937 65.7846 75.425 62.4471L75.2375 62.7471C76.2156 61.1908 77.1906 59.6283 78.125 58.0533C81.6594 52.7158 84.0344 46.3158 84.75 39.4252L84.7656 39.2439ZM47.3094 17.7721C46.6875 16.4033 45.3312 15.4689 43.7594 15.4689C43.1719 15.4689 42.6187 15.5971 42.1187 15.8314L42.1437 15.8221C34.4469 20.2439 28.9719 27.7877 27.4219 36.6814L27.3969 36.8596C27.3625 37.0502 27.3438 37.2721 27.3438 37.4971C27.3438 39.4252 28.7406 41.0252 30.5781 41.3439L30.6 41.3471C30.7969 41.3814 31.0219 41.4033 31.2531 41.4033C33.175 41.4002 34.7719 40.0096 35.0969 38.1814L35.1 38.1564C36.2438 31.6971 40.0219 26.2908 45.2625 22.9939L45.3563 22.9408C46.7219 22.3158 47.6531 20.9596 47.6531 19.3846C47.6531 18.8002 47.525 18.2471 47.2938 17.7502L47.3031 17.7752L47.3094 17.7721ZM4.50312 9.74394L17.0031 15.9939C17.5031 16.2408 18.0906 16.3877 18.7094 16.3877C20.8656 16.3877 22.6156 14.6377 22.6156 12.4814C22.6156 10.9752 21.7625 9.66894 20.5156 9.01582L20.4937 9.00644L7.99375 2.75645C7.49375 2.50957 6.90625 2.3627 6.2875 2.3627C4.13125 2.3627 2.38125 4.1127 2.38125 6.26895C2.38125 7.7752 3.23438 9.08144 4.48125 9.73457L4.50312 9.74394ZM81.25 16.4064C81.2531 16.4064 81.2531 16.4064 81.2563 16.4064C81.8906 16.4064 82.4906 16.2533 83.0188 15.9846L82.9969 15.9939L95.4969 9.74394C96.7688 9.08144 97.6188 7.7752 97.6188 6.26895C97.6188 4.1127 95.8688 2.3627 93.7125 2.3627C93.0906 2.3627 92.5031 2.50645 91.9812 2.76582L92.0031 2.75645L79.5031 9.00644C78.2125 9.66269 77.3469 10.9783 77.3469 12.5002C77.3469 14.6564 79.0938 16.4064 81.25 16.4064ZM95.4969 65.2596L82.9969 59.0096C82.4875 58.7502 81.8875 58.5971 81.25 58.5971C79.0938 58.5971 77.3469 60.3439 77.3469 62.5002C77.3469 64.0189 78.2156 65.3377 79.4812 65.9814L79.5031 65.9908L92.0031 72.2408C92.5125 72.5002 93.1125 72.6533 93.75 72.6533C95.9062 72.6533 97.6531 70.9064 97.6531 68.7502C97.6531 67.2314 96.7844 65.9127 95.5188 65.2689L95.4969 65.2596ZM17.3781 58.9596L5.15 64.6783C3.8125 65.3189 2.90625 66.6596 2.90625 68.2127C2.90625 70.3721 4.65625 72.1189 6.8125 72.1189C7.40938 72.1189 7.975 71.9846 8.48125 71.7471L8.45625 71.7564L20.6844 66.0377C22.0219 65.3971 22.9281 64.0564 22.9281 62.5033C22.9281 60.3439 21.1781 58.5971 19.0219 58.5971C18.425 58.5971 17.8594 58.7314 17.3531 58.9689L17.3781 58.9596ZM6.25 41.4064H9.375C11.5312 41.4064 13.2812 39.6564 13.2812 37.5002C13.2812 35.3439 11.5312 33.5939 9.375 33.5939H6.25C4.09375 33.5939 2.34375 35.3439 2.34375 37.5002C2.34375 39.6564 4.09375 41.4064 6.25 41.4064ZM93.75 33.5939H90.625C88.4688 33.5939 86.7188 35.3439 86.7188 37.5002C86.7188 39.6564 88.4688 41.4064 90.625 41.4064H93.75C95.9062 41.4064 97.6562 39.6564 97.6562 37.5002C97.6562 35.3439 95.9062 33.5939 93.75 33.5939Z" fill="#4700E8"/>
</svg>
